<svg width="23" height="26" viewBox="0 0 23 26" fill="none" xmlns="http://www.w3.org/2000/svg">
<path fill-rule="evenodd" clip-rule="evenodd" d="M8.30348 2.81259C6.45615 5.50541 5.92117 9.03201 7.17993 12.3112L7.39409 12.8691C9.42681 18.1645 15.3674 20.8094 20.6629 18.7767C21.0985 18.6095 21.5162 18.4158 21.9148 18.1982C20.779 19.854 19.147 21.1944 17.1307 21.9684C11.8353 24.0011 5.89469 21.3562 3.86197 16.0608L3.64781 15.5029C1.78232 10.6431 3.8565 5.23989 8.30348 2.81259Z" fill="#FFD914" style="fill:#FFD914;fill:color(display-p3 1.0000 0.8523 0.0767);fill-opacity:1;"/>
<path d="M14 8L14.6735 10.0729L16.8532 10.0729L15.0898 11.3541L15.7634 13.4271L14 12.1459L12.2366 13.4271L12.9102 11.3541L11.1468 10.0729L13.3265 10.0729L14 8Z" fill="#FFD914" style="fill:#FFD914;fill:color(display-p3 1.0000 0.8523 0.0767);fill-opacity:1;"/>
</svg>
